PathFileType	4	(X/Y/Z)	Walk1_0-155.trc
DataRate	CameraRate	NumFrames	NumMarkers	Units	OrigDataRate	OrigDataStartFrame	OrigNumFrames
30	30	6	22	m	30	77	155
Frame#	Time	Hip			RHip			RKnee			RAnkle			RBigToe			RSmallToe			RHeel			LHip			LKnee			LAnkle			LBigToe			LSmallToe			LHeel			Neck			Head			Nose			RShoulder			RElbow			RWrist			LShoulder			LElbow			LWrist		
		X1	Y1	Z1	X2	Y2	Z2	X3	Y3	Z3	X4	Y4	Z4	X5	Y5	Z5	X6	Y6	Z6	X7	Y7	Z7	X8	Y8	Z8	X9	Y9	Z9	X10	Y10	Z10	X11	Y11	Z11	X12	Y12	Z12	X13	Y13	Z13	X14	Y14	Z14	X15	Y15	Z15	X16	Y16	Z16	X17	Y17	Z17	X18	Y18	Z18	X19	Y19	Z19	X20	Y20	Z20	X21	Y21	Z21	X22	Y22	Z22
78	2.6	-0.6819580597901196	0.8893509880671234	0.35878704633579045	-0.6722593973043859	0.8670854219079484	0.4621247204577434	-0.6065506529681041	0.5049064112131793	0.42319939096145137	-0.6452703774904054	0.11159523104321024	0.37607893227918315	-0.43572021900859137	0.04299018089248371	0.36921749380640634	-0.4845828568999584	0.02659087341694291	0.435946589266492	-0.7058409569366622	0.033422664846189665	0.3592449840638	-0.6769974454308658	0.8723367689019347	0.25358869210069784	-0.5855303390089345	0.5191191068704003	0.22741320521808683	-0.9013736605446868	0.2860994457560798	0.2574954847994376	-0.8438007807796549	0.07418536047826277	0.28104069585977465	-0.8724950564694618	0.09342408184957829	0.22732739818860342	-0.9827727372937777	0.2767346781521216	0.2660400272956655	-0.7283833844330447	1.5695119408559586	0.3490981836851162	-0.6743360098729992	1.819880518278971	0.37437147914020297	-0.5510579572128833	1.675302395740904	0.37431598836521934	-0.7547866337900235	1.4453851150088308	0.533751049672806	-0.6905343356019045	1.1326709595546802	0.5901523963577173	-0.5806178687241537	0.8911224465256281	0.6253299563173471	-0.7600947678800958	1.4579849394685191	0.14600880973466743	-0.7377554219278446	1.1420412376622109	0.10513027303663983	-0.6873829833485072	0.8888316509870281	0.09232960072924572
79	2.6333333333333333	-0.6462933959327959	0.8973712773728837	0.3613627185560202	-0.6402684513328104	0.8745152855965845	0.4637300306976935	-0.5978751647100407	0.5070575534039509	0.4254418204921985	-0.6431127382520494	0.11537711305295281	0.3764048017348221	-0.43643487578779994	0.04272229392839849	0.372954600838242	-0.487178325287457	0.024746855311299658	0.4370891680221923	-0.7067267473224438	0.03448473725628575	0.3581860619605654	-0.6389584511239202	0.8808399211431723	0.25398948417628975	-0.5073893323889364	0.5372820620439703	0.23171441687755098	-0.7988181665966283	0.28054172565621316	0.2564325484930673	-0.7094075754402471	0.08452487476825468	0.2746239714669432	-0.7384935568981424	0.09558146624563638	0.22322878840532473	-0.8744886729441836	0.2596336231746195	0.2655476176820128	-0.6887534190117295	1.5766433880071267	0.3500664396095133	-0.6328029230381574	1.8247643031396017	0.3765086266207432	-0.513964530416907	1.678966690424492	0.3732011400740705	-0.7154818959064159	1.4536642766201247	0.5332461413705328	-0.6298008229020041	1.142144848317968	0.5960300177993076	-0.5036157613319023	0.9074480563447048	0.6284618306665317	-0.7219145004678273	1.4647546892044647	0.14752319527513924	-0.7115985760176008	1.149109004078005	0.1087521203337112	-0.675486713941496	0.8933166196396004	0.09371010538327346
80	2.6666666666666665	-0.6115884362320236	0.903961737278092	0.3638318967718605	-0.6101247909433061	0.8803914911867478	0.4657910955977237	-0.5895936780328432	0.5093983511606979	0.4266003052470018	-0.6405685032495908	0.1180205585595057	0.37537437423424147	-0.4381473838058277	0.04185953101179829	0.37620331693713305	-0.48890790681235746	0.02353737514014071	0.4376448629994663	-0.7080111404722467	0.034308736069124796	0.35691973448111713	-0.6009166841375836	0.8876322243875672	0.2539451669635564	-0.43400610694800906	0.553240067276748	0.23930183891721793	-0.688856664773486	0.2638188888181462	0.2567200361784412	-0.5629698521863105	0.08907713247488216	0.26745151899826103	-0.5912886312653695	0.09299482192005994	0.21929765794469863	-0.7562675080084632	0.22699790930335995	0.2670872511876215	-0.6487918926561005	1.5824541276936113	0.3508458427170699	-0.5904319347070854	1.8293149895050547	0.3776264421863387	-0.47734098232773375	1.681284305439117	0.37110925843873893	-0.676190498191026	1.461151799634476	0.5330128503535327	-0.5703824112138487	1.15159202680734	0.602193586611447	-0.4299292889488454	0.9247758564482111	0.6295568794065576	-0.6830014904006622	1.4699604090791603	0.1491339731568864	-0.6861558387536735	1.1553223874767133	0.11131844784717279	-0.6603718266448818	0.898229821758982	0.09427729748848904
81	2.7	-0.5766873573554674	0.9079474412203877	0.36619790108721934	-0.5803480077901991	0.8837514828210079	0.46806595438171905	-0.5807759191170663	0.511165528139651	0.4265603595031336	-0.638167830947794	0.11918641274014526	0.3732121710953814	-0.4406691080026608	0.040504600217743866	0.37794824449172026	-0.4900638873876744	0.023208800499951943	0.43789222671551575	-0.7091027118687842	0.03291678664129962	0.3554395158143865	-0.5618699650916609	0.8916019797213104	0.2538771332380716	-0.3675232761554108	0.5642788987932017	0.24859857794627946	-0.5729003766384674	0.24015467655725833	0.25748701156873893	-0.41460300907899894	0.09032343087852472	0.2606448229478738	-0.44188172565762057	0.08979899014864363	0.215241628288191	-0.6299197566902441	0.18617126090991384	0.2699572872256383	-0.6083356004626831	1.5861192325106854	0.35150207209383844	-0.5469763028402869	1.8328731070650757	0.3781266610152286	-0.4393967111562775	1.682092566350365	0.36818028863718993	-0.6364011964440821	1.4667608519589048	0.5330907041547182	-0.5135288408740311	1.1596430020993096	0.607518858178459	-0.35912626488954824	0.9415559530469335	0.6280323514427231	-0.6428133141117034	1.472741710354429	0.15122765014951461	-0.6601606563548157	1.1596074682061583	0.11356240114024548	-0.6417000356196818	0.9025163718180057	0.09407891922538333
82	2.7333333333333334	-0.5406629188150205	0.9087081413162709	0.3682730125792609	-0.5494723166151136	0.8839391457516907	0.4700041478576147	-0.5703806935326204	0.5115127075934519	0.42580424919696874	-0.6360983426151577	0.11922719013008339	0.37058888454255945	-0.4434550514902343	0.0385622685851975	0.3776836953430716	-0.4908936293153059	0.023796945666125262	0.43824560129012935	-0.7095040960779492	0.030868993692471352	0.35364898617225876	-0.5213329129144373	0.8919006460175941	0.2540407124042335	-0.30989329170685714	0.5684888690704647	0.2576469145747388	-0.45314788678037654	0.21466880089064228	0.2584438995452666	-0.2716385244361643	0.09246004548798639	0.2553660267413381	-0.29856352361382854	0.08964660716942097	0.21125360784961764	-0.4983656547172623	0.14532601800537812	0.2733802461180153	-0.5672403104569739	1.5871389026991714	0.3520240348676248	-0.5026189833928703	1.8343570209960005	0.37868555512509716	-0.39801971781866097	1.6810499901293918	0.36406161523348823	-0.5959093284222787	1.4696682309152347	0.5331929161534518	-0.45997390739508415	1.1651351856914278	0.6111601483993552	-0.2912308010319472	0.956734880906584	0.6240645966878688	-0.6009006409761664	1.4726287940402898	0.15392754721328344	-0.6318845113385858	1.1611495437359507	0.11605918310152408	-0.6196216387727272	0.9053413968084383	0.09318650042254938
83	2.7666666666666666	-0.5028958495766886	0.906243720851214	0.36986512346133604	-0.5163373131971889	0.8806331645467842	0.47104161031897274	-0.5574333654458878	0.510084052856492	0.424912588221503	-0.6343553452923618	0.1187785371767028	0.36809586991667553	-0.445385644168778	0.035770907399145624	0.37596333692557665	-0.4913414928975461	0.025040119686206168	0.4388988168967094	-0.7092262163946392	0.029144190233742328	0.3516168305680373	-0.4791388057107642	0.8882453391935694	0.254354072182025	-0.2610628927868056	0.5655467278940046	0.26525685513583286	-0.33323936638137575	0.1913100866507763	0.25975077279634523	-0.13876212411088076	0.09899365581237116	0.2524809592507737	-0.16557998465698412	0.09439519449306777	0.20807144319458037	-0.36677649982277827	0.11076794859996039	0.2762132888221081	-0.5254733420212809	1.5854602580290735	0.35233718805823494	-0.45818659253169264	1.8330142674469154	0.3794315894647299	-0.3522526739205153	1.677877989100538	0.3583535942555621	-0.5546889704704265	1.4694955297776773	0.5330343230424249	-0.4096599839324178	1.1672901088882643	0.6129123262520157	-0.22670171765064664	0.9694834996169848	0.618236954349131	-0.5572884507856276	1.4696179408156491	0.15677879901575323	-0.5998638141305995	1.1594787756728384	0.11905328773856812	-0.5942110764201014	0.906007480322867	0.09165991199814635
